HIERARCHY
ROOT Hips
{
	OFFSET 0.000000 0.000000 0.000000
	CHANNELS 6 Xposition Yposition Zposition Xrotation Yrotation Zrotation
	JOINT Chest
	{
		OFFSET 0.000000 0.009282 11.569106
		CHANNELS 6 Xposition Yposition Zposition Xrotation Yrotation Zrotation
		JOINT Chest2
		{
			OFFSET 0.000000 -0.016863 9.269641
			CHANNELS 6 Xposition Yposition Zposition Xrotation Yrotation Zrotation
			JOINT Chest3
			{
				OFFSET 0.000000 0.000000 8.374491
				CHANNELS 6 Xposition Yposition Zposition Xrotation Yrotation Zrotation
				JOINT Chest4
				{
					OFFSET 0.000000 0.000000 8.374493
					CHANNELS 6 Xposition Yposition Zposition Xrotation Yrotation Zrotation
					JOINT Neck
					{
						OFFSET 0.000000 -0.000001 12.152554
						CHANNELS 6 Xposition Yposition Zposition Xrotation Yrotation Zrotation
						JOINT Head
						{
							OFFSET 0.000000 -0.040100 7.802319
							CHANNELS 6 Xposition Yposition Zposition Xrotation Yrotation Zrotation
							End Site
							{
								OFFSET 0.000000 -0.020946 14.853096
							}
						}
					}
					JOINT RightCollar
					{
						OFFSET -2.894404 0.000000 6.791374
						CHANNELS 6 Xposition Yposition Zposition Xrotation Yrotation Zrotation
						JOINT RightShoulder
						{
							OFFSET -13.574684 0.000000 0.000000
							CHANNELS 6 Xposition Yposition Zposition Xrotation Yrotation Zrotation
							JOINT RightElbow
							{
								OFFSET -23.923903 0.000000 0.000000
								CHANNELS 6 Xposition Yposition Zposition Xrotation Yrotation Zrotation
								JOINT RightWrist
								{
									OFFSET -19.846718 -0.012765 0.000000
									CHANNELS 6 Xposition Yposition Zposition Xrotation Yrotation Zrotation
									End Site
									{
										OFFSET -14.973145 0.000000 0.000000
									}
								}
							}
						}
					}
					JOINT LeftCollar
					{
						OFFSET 2.894404 0.000000 6.791374
						CHANNELS 6 Xposition Yposition Zposition Xrotation Yrotation Zrotation
						JOINT LeftShoulder
						{
							OFFSET 13.574684 0.000000 0.000000
							CHANNELS 6 Xposition Yposition Zposition Xrotation Yrotation Zrotation
							JOINT LeftElbow
							{
								OFFSET 23.923903 0.000000 0.000000
								CHANNELS 6 Xposition Yposition Zposition Xrotation Yrotation Zrotation
								JOINT LeftWrist
								{
									OFFSET 19.846718 -0.012765 0.000000
									CHANNELS 6 Xposition Yposition Zposition Xrotation Yrotation Zrotation
									End Site
									{
										OFFSET 14.973145 0.000000 0.000000
									}
								}
							}
						}
					}
				}
			}
		}
	}
	JOINT RightHip
	{
		OFFSET -9.469263 -0.004642 0.045487
		CHANNELS 6 Xposition Yposition Zposition Xrotation Yrotation Zrotation
		JOINT RightKnee
		{
			OFFSET 0.000000 -0.002666 -40.478676
			CHANNELS 6 Xposition Yposition Zposition Xrotation Yrotation Zrotation
			JOINT RightAnkle
			{
				OFFSET 0.000000 -0.049110 -35.224068
				CHANNELS 6 Xposition Yposition Zposition Xrotation Yrotation Zrotation
				JOINT RightToe
				{
					OFFSET 0.000000 -12.539530 -6.151390
					CHANNELS 6 Xposition Yposition Zposition Xrotation Yrotation Zrotation
					End Site
					{
						OFFSET 0.000000 -5.044995 -1.291870
					}
				}
			}
		}
	}
	JOINT LeftHip
	{
		OFFSET 9.469263 -0.004642 0.045487
		CHANNELS 6 Xposition Yposition Zposition Xrotation Yrotation Zrotation
		JOINT LeftKnee
		{
			OFFSET 0.000000 -0.002666 -40.478676
			CHANNELS 6 Xposition Yposition Zposition Xrotation Yrotation Zrotation
			JOINT LeftAnkle
			{
				OFFSET 0.000000 -0.049110 -35.224068
				CHANNELS 6 Xposition Yposition Zposition Xrotation Yrotation Zrotation
				JOINT LeftToe
				{
					OFFSET 0.000000 -12.539530 -6.151390
					CHANNELS 6 Xposition Yposition Zposition Xrotation Yrotation Zrotation
					End Site
					{
						OFFSET 0.000000 -5.044995 -1.291870
					}
				}
			}
		}
	}
}
MOTION
Frames: 4
Frame Time: 0.016667
-10.938934 -1.076804 82.235306 2.540452 8.087697 -103.895817 -0.000000 0.009279 11.569111 8.326937 -0.147645 0.732195 0.000000 -0.016864 9.269636 3.698734 -0.079664 0.326067 0.000000 0.000000 8.374475 3.698735 -0.079664 0.326067 -0.000000 0.000000 8.374484 2.774009 -0.061724 0.244078 0.000001 0.000001 12.152564 26.606242 0.500589 0.613348 0.000000 -0.040082 7.802307 13.223193 0.785852 1.232168 -2.894403 0.000001 6.791380 -14.851727 -11.472686 -1.597965 -13.574688 -0.000001 -0.000012 22.044767 -38.115194 -6.267509 -23.923899 -0.000010 -0.000015 65.849806 22.272818 73.573691 -19.846708 -0.012759 0.000005 -60.297047 45.908768 84.931497 2.894405 0.000002 6.791378 -6.238833 6.809994 -2.806471 13.574683 0.000001 0.000004 18.226247 38.943037 11.364409 23.923895 0.000002 -0.000001 60.520503 -11.687909 -68.690810 19.846710 -0.012772 -0.000001 -30.173153 -33.346052 -82.678019 -9.469263 -0.004644 0.045493 9.657549 -6.554147 -13.604944 -0.000042 -0.002668 -40.478634 1.048627 -4.931342 0.916569 0.000082 -0.049121 -35.224239 -3.535441 8.464760 -1.792998 -0.000001 -12.539531 -6.151385 -0.035839 -0.312854 0.006246 9.469263 -0.004644 0.045494 -6.451412 -9.549298 32.041367 -0.000974 -0.002853 -40.478550 1.446387 3.696987 21.389352 -0.000267 -0.049211 -35.223412 14.928224 -4.665537 5.717140 0.000001 -12.539528 -6.151370 0.357587 0.793177 -0.012714 
-11.011553 -1.131562 82.233665 2.617759 8.004934 -103.998987 -0.000000 0.009281 11.569108 8.257770 -0.218850 0.725281 -0.000000 -0.016861 9.269637 3.668084 -0.110301 0.320079 0.000000 0.000000 8.374475 3.668084 -0.110301 0.320079 0.000000 0.000001 8.374484 2.751002 -0.084651 0.239407 0.000001 -0.000002 12.152540 26.551544 0.528815 0.603989 0.000001 -0.040104 7.802316 13.121362 0.839151 1.221486 -2.894404 0.000001 6.791365 -14.914435 -11.476731 -1.593631 -13.574689 0.000001 -0.000005 22.057763 -38.059757 -6.358123 -23.923893 -0.000002 -0.000011 65.871171 22.278202 73.642779 -19.846720 -0.012769 0.000003 -60.441799 45.866086 85.055758 2.894405 -0.000001 6.791364 -6.249685 6.809525 -2.806514 13.574687 0.000001 -0.000004 18.241518 39.013040 11.402636 23.923889 -0.000002 0.000012 60.579755 -11.642563 -68.628505 19.846724 -0.012767 0.000000 -30.057873 -33.339270 -82.503754 -9.469264 -0.004642 0.045480 9.632475 -6.605586 -13.471969 -0.000043 -0.002666 -40.478634 1.035563 -4.877384 0.899273 0.000083 -0.049122 -35.224247 -3.507412 8.467362 -1.798846 0.000000 -12.539528 -6.151381 -0.049829 -0.321066 0.003087 9.469264 -0.004643 0.045483 -6.218424 -9.400840 32.454457 -0.000973 -0.002852 -40.478561 1.147044 3.798054 21.368633 -0.000261 -0.049203 -35.223438 14.532783 -4.826799 5.687220 0.000001 -12.539534 -6.151360 0.489561 0.579665 0.003598 
-11.079267 -1.190577 82.233765 2.694549 7.915335 -104.093504 -0.000000 0.009280 11.569097 8.194417 -0.290918 0.716434 0.000000 -0.016862 9.269629 3.639139 -0.138910 0.314448 -0.000000 0.000000 8.374481 3.639138 -0.138910 0.314446 0.000000 -0.000000 8.374487 2.729280 -0.106060 0.235017 0.000001 -0.000003 12.152562 26.494883 0.542867 0.596597 0.000000 -0.040102 7.802313 13.016018 0.866042 1.211402 -2.894403 0.000000 6.791378 -14.942079 -11.469840 -1.572942 -13.574682 -0.000001 0.000008 22.098324 -37.996909 -6.390581 -23.923897 -0.000003 -0.000001 65.883424 22.294644 73.701607 -19.846714 -0.012767 0.000004 -60.626665 45.822646 85.220093 2.894404 0.000001 6.791379 -6.269611 6.832570 -2.814953 13.574684 0.000001 0.000007 18.286882 39.053925 11.407189 23.923914 -0.000006 0.000014 60.632245 -11.532642 -68.578508 19.846725 -0.012768 0.000002 -29.948156 -33.324008 -82.360170 -9.469263 -0.004643 0.045475 9.597246 -6.650296 -13.421252 -0.000040 -0.002667 -40.478626 1.032412 -4.830702 0.890900 0.000080 -0.049123 -35.224239 -3.496234 8.443037 -1.761208 0.000002 -12.539532 -6.151381 -0.056037 -0.308164 -0.006160 9.469264 -0.004644 0.045476 -6.054590 -9.355109 32.874537 -0.000969 -0.002848 -40.478554 0.904039 3.889430 21.315270 -0.000264 -0.049206 -35.223431 14.321551 -4.932746 5.729231 -0.000001 -12.539531 -6.151360 0.501021 0.409626 0.018551 
-11.139889 -1.250018 82.233063 2.776117 7.818039 -104.166279 -0.000000 0.009282 11.569113 8.139597 -0.361909 0.702712 -0.000000 -0.016863 9.269634 3.613765 -0.164379 0.307039 -0.000000 0.000000 8.374484 3.613765 -0.164379 0.307035 0.000000 -0.000000 8.374489 2.710239 -0.125106 0.229313 0.000001 -0.000001 12.152557 26.435458 0.540732 0.590229 -0.000000 -0.040101 7.802315 12.905662 0.863015 1.199705 -2.894403 -0.000002 6.791377 -14.905126 -11.440679 -1.569874 -13.574682 -0.000003 -0.000000 22.148581 -37.936687 -6.325734 -23.923903 -0.000001 -0.000018 65.891183 22.331558 73.732316 -19.846722 -0.012761 0.000005 -60.815813 45.778516 85.383628 2.894405 -0.000001 6.791381 -6.264503 6.856886 -2.825500 13.574683 0.000001 -0.000007 18.346744 39.087622 11.360911 23.923903 -0.000008 0.000002 60.669435 -11.427599 -68.537383 19.846735 -0.012766 0.000006 -29.865125 -33.324541 -82.266432 -9.469264 -0.004642 0.045494 9.538873 -6.704214 -13.444628 -0.000042 -0.002667 -40.478630 1.058362 -4.777307 0.918972 0.000081 -0.049120 -35.224236 -3.510425 8.386660 -1.695633 0.000003 -12.539532 -6.151386 -0.050772 -0.273198 -0.027536 9.469263 -0.004641 0.045490 -6.006032 -9.464272 33.230738 -0.000965 -0.002851 -40.478577 0.858189 3.976899 21.190930 -0.000271 -0.049202 -35.223434 14.262116 -4.978617 5.856581 -0.000002 -12.539536 -6.151356 0.396173 0.317357 0.033471 
